<svg xmlns="http://www.w3.org/2000/svg" width="593" height="442" viewBox="0 0 593 442" fill="none"><g opacity="0.12"><path d="M452.282 290.22H413.039V250.842H367.665V290.22H328.355V335.748H367.665V375.126H413.039V335.748H452.282V290.22Z" fill="#1DBFCC"></path><path d="M584.805 340.293L563.951 166.335L217.223 209.123C217.223 209.123 325.226 329.53 279.853 614C279.853 614 277.121 336.616 164.588 184.52L593 131.704L584.805 340.227V340.293Z" fill="#002345"></path><path d="M367.667 106.233L334.286 33.3609L-3.31333 75.2794C-3.31333 75.2794 233.879 309.608 193.903 540.327C193.903 540.327 166.053 259.801 -82 47.3337L352.409 0L367.6 106.233H367.667Z" fill="#002345"></path></g></svg>