<svg xmlns="http://www.w3.org/2000/svg" width="1096" height="1173" viewBox="0 0 1096 1173" fill="none"><path d="M1.36782 836.738C2.14958 837.142 3.21267 837.685 4.54813 838.351C7.69525 839.92 12.355 842.174 18.4103 844.913C30.5208 850.39 48.2138 857.807 70.5515 865.573C115.226 881.104 178.485 898.031 252.827 903.611C400.312 914.682 591.403 881.095 767.492 703.412C765.637 705.962 763.059 709.42 759.761 713.649C752.241 723.296 740.98 736.953 726.025 752.989C696.113 785.059 651.423 826.637 592.319 864.662C474.151 940.683 298.358 1002.51 67.7896 945.744L1.36782 836.738Z" stroke="white"></path><path d="M872.768 625.593L872.769 625.592C903.195 537.475 911.476 442.501 899.222 350.157C898.826 347.139 898.428 344.039 898.022 340.873C896.011 325.178 893.79 307.856 890.414 290.836C887.621 276.756 884.034 262.863 879.109 250.248C927.066 345.297 945.275 462.403 936.65 566.639C919.525 773.667 778.803 951.726 598.469 1046.22L598.468 1046.22C536.616 1078.7 469.868 1101.88 401.264 1114.99C380.844 1118.89 360.259 1121.93 339.508 1123.71C338.362 1123.79 336.631 1124.07 334.648 1124.4L334.355 1124.45C332.433 1124.76 330.273 1125.12 328.124 1125.39C325.863 1125.68 323.631 1125.88 321.715 1125.86C319.776 1125.84 318.251 1125.59 317.339 1125.04C315.058 1123.69 312.756 1122.34 310.455 1120.98L310.417 1120.96C308.128 1119.61 305.841 1118.26 303.575 1116.92L303.541 1116.9L303.518 1116.89C303.518 1116.89 303.5 1116.88 303.451 1116.85C303.394 1116.82 303.312 1116.77 303.204 1116.71C302.99 1116.59 302.681 1116.41 302.276 1116.17C301.465 1115.7 300.274 1115 298.702 1114.08C296.207 1112.61 292.752 1110.57 288.332 1107.96L284.679 1105.81C272.266 1098.48 253.709 1087.54 228.925 1072.98L228.87 1073.08C228.925 1072.98 228.925 1072.98 228.924 1072.98L228.923 1072.98L228.917 1072.98L228.892 1072.96L228.795 1072.91L228.417 1072.68C228.085 1072.49 227.599 1072.2 226.981 1071.84C225.744 1071.11 223.978 1070.07 221.859 1068.82C217.621 1066.32 211.975 1062.98 206.339 1059.63C200.703 1056.28 195.079 1052.91 190.885 1050.34C188.961 1049.17 187.34 1048.16 186.159 1047.41C186.16 1047.41 186.16 1047.41 186.161 1047.41C186.98 1047.54 188.105 1047.67 189.321 1047.67C243.622 1047.67 297.949 1046.49 351.861 1038.61C411.94 1029.88 470.922 1013.96 526.864 990.491C686.249 923.732 815.805 790.044 872.768 625.593Z" stroke="white"></path><path d="M804.488 68.2429L804.796 67.8484L804.795 67.8482C777.83 46.875 751.777 31.3487 732.739 20.4142C730.13 18.9157 727.654 17.5043 725.327 16.1774C719.156 12.659 714.026 9.73484 710.218 7.35663C707.593 5.71757 705.624 4.35499 704.381 3.24992C703.757 2.69545 703.343 2.22959 703.117 1.84854C702.889 1.46528 702.896 1.25113 702.945 1.13026L702.981 1.04046V0.984352C703.032 0.918137 703.137 0.832344 703.354 0.748798C703.644 0.637174 704.065 0.557271 704.628 0.521393C705.749 0.449874 707.31 0.559499 709.215 0.820035C713.018 1.34004 718.087 2.44571 723.524 3.79915C733.767 6.34878 745.257 9.76261 751.921 11.7424C752.329 11.8636 752.719 11.9794 753.089 12.0893C933.475 66.0275 1047.39 240.383 1083.5 418.214C1125.94 627.215 1053.89 840.449 897.207 983.82L897.544 984.189L897.207 983.82C793.15 1079.08 653.491 1152.84 512.512 1169.17C490.922 1171.68 469.204 1172.77 447.469 1172.44C456.762 1171.08 467.472 1168.03 478.045 1164.44C491.206 1159.98 504.206 1154.64 514.077 1150.59C515.018 1150.21 515.93 1149.83 516.812 1149.47C529.899 1144.16 543.008 1138.24 556.123 1132.32C565.764 1127.97 575.408 1123.62 585.049 1119.5L584.852 1119.04L585.049 1119.5C636.232 1097.57 686.672 1073.52 733.823 1043.78L733.556 1043.36L733.823 1043.78C802.383 1000.48 983.14 840.197 1008.16 583.321L1007.66 583.272L1008.16 583.32C1029.79 360.422 923.23 191.24 879.261 140.21L878.883 140.537L879.261 140.21C860.414 118.35 841.8 100.262 827.898 87.6392C820.947 81.3273 815.173 76.3811 811.137 73.0122C809.118 71.3278 807.534 70.0376 806.454 69.1681C805.914 68.7334 805.5 68.4039 805.22 68.1828C805.081 68.0723 804.975 67.9889 804.904 67.933L804.823 67.8699L804.803 67.8539L804.797 67.8499L804.796 67.8488C804.796 67.8485 804.796 67.8484 804.488 68.2429Z" stroke="white"></path></svg>